D:\school\WTK\thesis\model\3dpredictsim\Results\batch_windlass\Pog_s1_tmt_bCst_d05_k1000_WL20_ig24_act_TTC_GRF.mot
nRows=25
nColumns=19

name D:\school\WTK\thesis\model\3dpredictsim\Results\batch_windlass\Pog_s1_tmt_bCst_d05_k1000_WL20_ig24_act_TTC_GRF.mot
datacolumns 19
datarows 25
range 0.6219603573 0.9205013288
endheader
time 	ground_force_vx	ground_force_vy	ground_force_vz	ground_force_px	ground_force_py	ground_force_pz	1_ground_force_vx	1_ground_force_vy	1_ground_force_vz	1_ground_force_px	1_ground_force_py	1_ground_force_pz	ground_torque_x	ground_torque_y	ground_torque_z	1_ground_torque_x	1_ground_torque_y	1_ground_torque_z
        0.6219603573	       93.1498561941	      370.5742786794	        2.0585097199	        0.3981065799	        0.0000000000	        0.0335166639	      -51.5763697913	       35.7950559919	       -7.1828003209	        0.9408819964	        0.0000000000	       -0.0609905862	        0.0000000000	        0.0000000000	        0.0000000000	        0.0000000000	        0.0000000000	        0.0000000000	
        0.6343995644	       58.8689598714	      269.1641103601	       10.7783146074	        0.4089495874	        0.0000000000	        0.0295588696	     -123.0225870016	      103.1624360533	      -20.8733521639	        0.9553786555	        0.0000000000	       -0.0596518761	        0.0000000000	        0.0000000000	        0.0000000000	        0.0000000000	        0.0000000000	        0.0000000000	
        0.6468387716	       43.6353415667	      218.9459430498	       16.2633007128	        0.4134605274	        0.0000000000	        0.0277701072	     -137.4494269561	      286.5095342447	      -22.6255661394	        0.9721598912	        0.0000000000	       -0.0601992832	        0.0000000000	        0.0000000000	        0.0000000000	        0.0000000000	        0.0000000000	        0.0000000000	
        0.6592779787	       39.8820994934	      175.6367041342	       14.5910648413	        0.4135998332	        0.0000000000	        0.0277353638	     -114.8313840868	      661.2432712655	       18.4648628537	        0.9856382221	        0.0000000000	       -0.0617263278	        0.0000000000	        0.0000000000	        0.0000000000	        0.0000000000	        0.0000000000	        0.0000000000	
        0.6717171859	       26.1979650844	      116.6754068545	       14.8195934406	        0.4134913560	        0.0000000000	        0.0280309988	     -145.4686823037	      893.0038128524	       29.6295937062	        0.9946187033	        0.0000000000	       -0.0622433557	        0.0000000000	        0.0000000000	        0.0000000000	        0.0000000000	        0.0000000000	        0.0000000000	
        0.6841563930	        4.0166781807	       44.4123836397	       10.2267502503	        0.4123648675	        0.0000000000	        0.0286403875	     -182.7563103586	      980.8889471185	       29.4447290600	        1.0057131796	        0.0000000000	       -0.0613996263	        0.0000000000	        0.0000000000	        0.0000000000	        0.0000000000	        0.0000000000	        0.0000000000	
        0.6965956001	        0.1785233171	       -0.1865746595	       -0.0167617939	        0.0000000000	        0.0000000000	        0.0000000000	     -174.2169469182	      962.6775836277	       23.5009112986	        1.0154374086	        0.0000000000	       -0.0599840993	        0.0000000000	        0.0000000000	        0.0000000000	        0.0000000000	        0.0000000000	        0.0000000000	
        0.7090348073	        0.0001572031	       -0.0001399147	       -0.0000020194	        0.0000000000	        0.0000000000	        0.0000000000	     -145.7406802878	      863.3957287477	       19.5981941577	        1.0205786324	        0.0000000000	       -0.0590766891	        0.0000000000	        0.0000000000	        0.0000000000	        0.0000000000	        0.0000000000	        0.0000000000	
        0.7214740144	        0.0000073323	       -0.0000057774	        0.0000000653	        0.0000000000	        0.0000000000	        0.0000000000	     -121.0124834149	      774.4634396718	       18.0874902616	        1.0246037505	        0.0000000000	       -0.0585242880	        0.0000000000	        0.0000000000	        0.0000000000	        0.0000000000	        0.0000000000	        0.0000000000	
        0.7339132216	        0.0000028709	       -0.0000020641	        0.0000000473	        0.0000000000	        0.0000000000	        0.0000000000	     -104.5791607687	      720.4706162083	       17.1244719141	        1.0285656907	        0.0000000000	       -0.0581422204	        0.0000000000	        0.0000000000	        0.0000000000	        0.0000000000	        0.0000000000	        0.0000000000	
        0.7463524287	        0.0000045068	       -0.0000030176	        0.0000000618	        0.0000000000	        0.0000000000	        0.0000000000	      -90.5259437937	      686.6987491330	       15.6473017553	        1.0321032562	        0.0000000000	       -0.0578845614	        0.0000000000	        0.0000000000	        0.0000000000	        0.0000000000	        0.0000000000	        0.0000000000	
        0.7587916359	        0.0000119025	       -0.0000076121	        0.0000000395	        0.0000000000	        0.0000000000	        0.0000000000	      -78.5081142562	      665.5943291808	       16.7326046261	        1.0353940272	        0.0000000000	       -0.0576709812	        0.0000000000	        0.0000000000	        0.0000000000	        0.0000000000	        0.0000000000	        0.0000000000	
        0.7712308430	        0.0000700083	       -0.0000423213	        0.0000005648	        0.0000000000	        0.0000000000	        0.0000000000	      -66.6831823142	      651.1437698778	       18.9608862089	        1.0391838598	        0.0000000000	       -0.0574361698	        0.0000000000	        0.0000000000	        0.0000000000	        0.0000000000	        0.0000000000	        0.0000000000	
        0.7836700502	       -0.0003092883	        0.0001725671	       -0.0000095579	        0.0000000000	        0.0000000000	        0.0000000000	      -56.0582777094	      637.9216802856	       20.1082528666	        1.0442388732	        0.0000000000	       -0.0570852103	        0.0000000000	        0.0000000000	        0.0000000000	        0.0000000000	        0.0000000000	        0.0000000000	
        0.7961092573	       -0.0001886372	        0.0000979999	       -0.0000090377	        0.0000000000	        0.0000000000	        0.0000000000	      -48.1834713607	      625.7666629618	       20.6300138774	        1.0503490915	        0.0000000000	       -0.0565737331	        0.0000000000	        0.0000000000	        0.0000000000	        0.0000000000	        0.0000000000	        0.0000000000	
        0.8085484645	       -0.0001393550	        0.0000682000	       -0.0000083317	        0.0000000000	        0.0000000000	        0.0000000000	      -42.4013422495	      615.8206538128	       20.9258189382	        1.0570006692	        0.0000000000	       -0.0559394519	        0.0000000000	        0.0000000000	        0.0000000000	        0.0000000000	        0.0000000000	        0.0000000000	
        0.8209876716	       -0.0001482262	        0.0000690938	       -0.0000098705	        0.0000000000	        0.0000000000	        0.0000000000	      -37.8158748050	      608.0764759552	       20.5226363721	        1.0637665944	        0.0000000000	       -0.0552440698	        0.0000000000	        0.0000000000	        0.0000000000	        0.0000000000	        0.0000000000	        0.0000000000	
        0.8334268787	       -0.0002215653	        0.0000992937	       -0.0000152946	        0.0000000000	        0.0000000000	        0.0000000000	      -33.4650699696	      602.5483040468	       19.9223911017	        1.0705454348	        0.0000000000	       -0.0545010273	        0.0000000000	        0.0000000000	        0.0000000000	        0.0000000000	        0.0000000000	        0.0000000000	
        0.8458660859	       -0.0004356217	        0.0001890795	       -0.0000297231	        0.0000000000	        0.0000000000	        0.0000000000	      -30.1553207932	      598.3132897217	       19.3693550557	        1.0772236497	        0.0000000000	       -0.0537180417	        0.0000000000	        0.0000000000	        0.0000000000	        0.0000000000	        0.0000000000	        0.0000000000	
        0.8583052930	       -0.0010507486	        0.0004441454	       -0.0000688816	        0.0000000000	        0.0000000000	        0.0000000000	      -27.5978995298	      594.6749441249	       19.0814740247	        1.0835585577	        0.0000000000	       -0.0529407494	        0.0000000000	        0.0000000000	        0.0000000000	        0.0000000000	        0.0000000000	        0.0000000000	
        0.8707445002	       -0.0029390815	        0.0012143414	       -0.0001826238	        0.0000000000	        0.0000000000	        0.0000000000	      -24.9003532163	      591.1618304071	       18.9517086183	        1.0895150054	        0.0000000000	       -0.0521886771	        0.0000000000	        0.0000000000	        0.0000000000	        0.0000000000	        0.0000000000	        0.0000000000	
        0.8831837073	       -0.0088907242	        0.0036003626	       -0.0005193305	        0.0000000000	        0.0000000000	        0.0000000000	      -21.9411542344	      587.2652321771	       18.9895660480	        1.0951738594	        0.0000000000	       -0.0514510833	        0.0000000000	        0.0000000000	        0.0000000000	        0.0000000000	        0.0000000000	        0.0000000000	
        0.8956229145	       -0.0268813204	        0.0106975218	       -0.0014728590	        0.0000000000	        0.0000000000	        0.0000000000	      -18.7698232877	      583.1003377285	       19.2170043121	        1.1006146207	        0.0000000000	       -0.0507118656	        0.0000000000	        0.0000000000	        0.0000000000	        0.0000000000	        0.0000000000	        0.0000000000	
        0.9080621216	       -0.0751982433	        0.0294878757	       -0.0038542823	        0.0000000000	        0.0000000000	        0.0000000000	      -15.5182752173	      578.4616799211	       19.4570170997	        1.1058297004	        0.0000000000	       -0.0499701677	        0.0000000000	        0.0000000000	        0.0000000000	        0.0000000000	        0.0000000000	        0.0000000000	
        0.9205013288	       -0.1835176280	        0.0711126537	       -0.0087621654	        0.0000000000	        0.0000000000	        0.0000000000	      -12.2411360448	      573.4621680790	       19.7900200018	        1.1107832737	        0.0000000000	       -0.0492297090	        0.0000000000	        0.0000000000	        0.0000000000	        0.0000000000	        0.0000000000	        0.0000000000	
